PathFileType	4	(X/Y/Z)	60_2_4_p0_0-487_filt_butterworth.trc
DataRate	CameraRate	NumFrames	NumMarkers	Units	OrigDataRate	OrigDataStartFrame	OrigNumFrames
59.0	59.0	6	27	m	59.0	304	487
Frame#	Time	RHip			RKnee			RAnkle			RBigToe			RSmallToe			RHeel			LHip			LKnee			LAnkle			LBigToe			LSmallToe			LHeel			Neck			Head			Nose			RShoulder			RElbow			RWrist			RThumb			RIndex			RPinky			LShoulder			LElbow			LWrist			LThumb			LIndex			LPinky			
		X1	Y1	Z1	X2	Y2	Z2	X3	Y3	Z3	X4	Y4	Z4	X5	Y5	Z5	X6	Y6	Z6	X7	Y7	Z7	X8	Y8	Z8	X9	Y9	Z9	X10	Y10	Z10	X11	Y11	Z11	X12	Y12	Z12	X13	Y13	Z13	X14	Y14	Z14	X15	Y15	Z15	X16	Y16	Z16	X17	Y17	Z17	X18	Y18	Z18	X19	Y19	Z19	X20	Y20	Z20	X21	Y21	Z21	X22	Y22	Z22	X23	Y23	Z23	X24	Y24	Z24	X25	Y25	Z25	X26	Y26	Z26	X27	Y27	Z27	
304	5.152542372881356	0.30587774355936537	0.6622539957216868	0.690132452795438	0.3236828848320978	0.17434470980554553	0.7428836974951243	0.3133242061764753	-0.21700846726042286	0.7236831458976541	0.29204695966130023	-0.28172027126181887	0.6093507373576696	0.3690738393249761	-0.259435766784343	0.6157763799999819	0.27752830673698575	-0.3217569835446348	0.8277990919151728	0.09852122477050662	0.6525015865619735	0.7317682489876873	0.09642524620454561	0.17770404527470587	0.7618704030507356	0.09709573448272009	-0.20928212649177935	0.7569412302679114	0.1018029377309232	-0.2313184295851092	0.5768233651834564	0.05153027156443077	-0.2453301853459391	0.6273647420079167	0.10889281754955596	-0.26185440157430845	0.7984833930872897	0.2518274147469494	1.1981587676683052	0.7768080496913723	0.26060079921467627	1.4241233448052923	0.7726083315917852	0.25590841419526433	1.3065198476647897	0.7193519980701555	0.3754776932304901	1.1497662774322421	0.7714249405521081	0.4394665724891411	1.179348903109967	0.514534255266778	0.3554489440573245	1.3610613244777234	0.4852541962250741	0.2757195355022236	1.4387958671895784	0.5301678079981023	0.25766928654976007	1.4685941681507106	0.5143478497857873	0.2712140601765563	1.4698058815694957	0.4590119216592824	0.09079902381293911	1.1644095538984776	0.7757102474377069	-0.056683908967350455	1.1514615611121939	0.574275273649114	0.0499949580526171	1.3312722342807957	0.5145887977793295	0.12630712429258273	1.3900965186643581	0.4686804208150564	0.12590688649813234	1.441127622185686	0.5078030980731292	0.0973349123271566	1.4434271735673871	0.5160200119792733	
305	5.169491525423729	0.30524429428023653	0.66161912094225	0.6912209762639345	0.3237754976073856	0.17372164096778583	0.742953137011475	0.31332198962226876	-0.21665094489615272	0.7236636066870151	0.29131326827367265	-0.28010201781078536	0.6069244440826471	0.36831476956088366	-0.25876789713345016	0.6131614791136447	0.27759861336309516	-0.32197334540249656	0.8281696018976217	0.09829079293963408	0.6521172291054014	0.7322643985205932	0.09642860040747699	0.17793724865240446	0.7619054291149465	0.09749860303662923	-0.20953841081488256	0.7570985003899853	0.1017762884486427	-0.23189423723764893	0.5772185240132599	0.05162765343047469	-0.24509342421276872	0.6276660391328287	0.10945150248472049	-0.2624553592316322	0.7994779846886181	0.2525584002334276	1.1978520388953484	0.7776368479907527	0.2629403011939284	1.4228999995774074	0.7790463139213795	0.2576608239811277	1.3076072810090826	0.7216921847616936	0.3754725377785278	1.1495103487209084	0.7716666140685298	0.43461835325583165	1.1918543807559343	0.5052412240817086	0.3448617494325611	1.3703627872573998	0.4777709459592656	0.25647635144141573	1.4414092960737823	0.5168061307316605	0.24318399368642019	1.4707347119577066	0.5102062825973942	0.25512811450197675	1.4749120511838487	0.4520820696014374	0.09101093476775515	1.163628319953595	0.7755041161707475	-0.05496499137957607	1.1555886909758222	0.5693045517776447	0.052086071532042255	1.3338847291170615	0.5186533201837095	0.1267406961801454	1.389841733464565	0.4693207144992977	0.12949066211321075	1.440359437027909	0.5166888153503154	0.10917683278516407	1.442969237618856	0.519851642521649	
306	5.186440677966102	0.30463271572306233	0.6607828077381397	0.6924807191002406	0.32387701081326126	0.17300553030072424	0.7430340241865553	0.31331837646117594	-0.2165813433769257	0.7240950583141245	0.29053664986652383	-0.27834547974113555	0.6043384908670988	0.3675055920500454	-0.258060765808623	0.6103441213553563	0.27768779716637365	-0.32213439319906884	0.8285839847937969	0.09795519523743183	0.6516666840684842	0.7326493183876694	0.09641574905651337	0.17805987506120813	0.761938106581832	0.09792849427262072	-0.20990095282453358	0.7572708661379178	0.10173555692276108	-0.23207073346699003	0.5773707944662227	0.05181345295521253	-0.2450013695094466	0.6279600327356992	0.10993692649981508	-0.26316429379142875	0.8002943124550983	0.2530316925156151	1.197756441436943	0.7765351194713043	0.2642356751387347	1.422287882382322	0.7817034127564904	0.2587633154385267	1.3081123861126143	0.7204767634703033	0.37514663749257005	1.14938989887794	0.770249418180792	0.4312885202306723	1.2020598921596135	0.49906286611114015	0.33723155350459644	1.3770444435340738	0.47112701302134924	0.23964090792912962	1.441321215051029	0.501436023551133	0.23149860131080402	1.472194258506862	0.5011997447981689	0.24406999160757975	1.4775014828383424	0.44602464514282475	0.09108837419617094	1.1627704525216356	0.7761835215726528	-0.052825419566877564	1.1582951873997263	0.5640016894609031	0.053407340870094154	1.3352263856356703	0.5214353082917746	0.12690773728540725	1.3891168108252867	0.46915931046242415	0.13196421225811739	1.4396096779127459	0.5261330182198835	0.11891200242070946	1.4419496915484857	0.5244769062392545	
307	5.203389830508475	0.30405018162780545	0.659863674588759	0.6937282230175206	0.32398443539581445	0.1722328881498577	0.7431299366120605	0.31330986399427635	-0.2166749226558376	0.7247964528057877	0.2898262150891834	-0.27668596091149983	0.6019551429911053	0.36675668355369473	-0.2572608681830539	0.6077653938279641	0.27775289984785767	-0.3221884627351177	0.8288520145275255	0.09754280179159319	0.651206035273812	0.7328304877079482	0.09640102789560968	0.17808441589833068	0.761959299081483	0.09836180255146244	-0.2102757841964118	0.757442198037272	0.10171823762810996	-0.23192457473004932	0.577349931400425	0.05206556158712476	-0.24497542764309507	0.6281410806294502	0.1102916449178259	-0.26378787208219423	0.8008692824091275	0.25324225601307476	1.1979172179983004	0.7727432810025785	0.2640996169462414	1.421859826046593	0.7796018270243945	0.2591175594689445	1.3078238366375439	0.7167962598919052	0.3745066098387996	1.149345006109204	0.7672273849764017	0.43018393179359615	1.2083874242632804	0.4975545523272792	0.3332649130045869	1.3803513586805873	0.4682396217715508	0.2271898229285596	1.4403506455718948	0.4867898514374345	0.2235070314387883	1.473557898866053	0.4891821673847334	0.23828674650407528	1.4785905144528821	0.4421476681710356	0.09107496953282612	1.1619912938468702	0.7766490127750227	-0.050272050357463335	1.1601091984490237	0.558334621628665	0.05444741064906915	1.3359066368303092	0.5228722407342306	0.1274016546735934	1.3883129542961976	0.4683852814142701	0.13409262920897716	1.4390636374254993	0.5345359643067397	0.1257835934643963	1.4404591020318394	0.5301414757281289	
308	5.220338983050848	0.30350033335734655	0.6589603714926924	0.6949065015426106	0.32409792465755705	0.17147068070715699	0.743240674983826	0.313299290627009	-0.2167302107086777	0.725359675954212	0.28926698383427046	-0.2753956138754378	0.6001595756151814	0.36616943354193143	-0.2563249533808646	0.6058628230346834	0.2777507742415852	-0.3221760100031345	0.8288898032097546	0.09706181912775899	0.650762501924086	0.7328357951267146	0.09639600419590309	0.178032405385287	0.7619581579345809	0.09878145871620782	-0.2106126365903836	0.7576052408855316	0.10169278293709	-0.2316537917299072	0.5771774558077342	0.05245365828462455	-0.24491591885900507	0.6282119156173982	0.11054596106330494	-0.2642106837735573	0.8012212897278251	0.2531260543988109	1.1983833915292847	0.7666918082625296	0.26271279692001803	1.4216717463826356	0.7729830332904313	0.25865142344757175	1.307049043520736	0.711832835503504	0.37357813061683787	1.1493755211679069	0.7632389497098873	0.4314801584755985	1.2098577022949366	0.5008744588472747	0.33319020299144964	1.3798391009114965	0.47119401004344524	0.22117947143790917	1.4401808513185346	0.4780242671873508	0.22004890599709356	1.4746193671628192	0.47977902603875333	0.23726950655688953	1.4788958030288535	0.4410126153298186	0.09095809019491286	1.161576882914768	0.776214026386679	-0.047654190182838056	1.1614245169781328	0.5530851557975497	0.05540099639562954	1.3361734780808647	0.5232908334748384	0.12814044850847553	1.387374565528453	0.4684878619949905	0.13601171889122465	1.438653799216076	0.5412657550837624	0.12934921956051626	1.438442783653696	0.5370137503477211	
309	5.237288135593221	0.30299637421102277	0.6581085248717351	0.6960541728764258	0.3242259397634479	0.17077655244122408	0.7433676297835312	0.3132885464214162	-0.21669115465186914	0.7256095897593388	0.2889005898518912	-0.27473499751932867	0.599309778157313	0.3658201403619452	-0.25531140657858314	0.6049478286744969	0.27767098732063583	-0.3221782737613978	0.8287084513779827	0.09650524927109204	0.6503578913249504	0.7327765161728936	0.09640430849155021	0.1779330044076352	0.7619369054733937	0.09918388613523198	-0.2109052416132057	0.7577623740445903	0.1016310998040531	-0.23147270643257933	0.5768247786944921	0.05300646363741991	-0.24477761179697047	0.6282436927066807	0.11081919876549029	-0.2645194400685613	0.8014915569876065	0.2527120449007398	1.1990659079975234	0.7596654195760719	0.26069031115652125	1.4221460443781677	0.7631000040093473	0.25750045955798884	1.30632604070149	0.706888497969748	0.37241687000030266	1.1495473234184594	0.759203591707054	0.43471503324182115	1.2064550320734708	0.5077960602914272	0.33662366338944544	1.3757798847309872	0.4800600460492571	0.22224699003137854	1.441191177379093	0.4792803768244992	0.22136575852788873	1.4749118528848522	0.47869623607534184	0.24004008893061657	1.4787474460960635	0.4420562854839085	0.09068796698622827	1.1618622031385404	0.7748056365158039	-0.045231157636245356	1.1621836238034353	0.5489110661487431	0.05637654956563961	1.3356894996606001	0.5232253141110149	0.1289106054374649	1.3859395901145999	0.4710222707758117	0.13765922488594173	1.4380762236702125	0.5460168600957306	0.12999269444401143	1.436264961492477	0.5439568573581705	
